<svg id="internet" xmlns="http://www.w3.org/2000/svg" width="96.396" height="96.396" viewBox="0 0 96.396 96.396">
  <g id="Group_1" data-name="Group 1">
    <path id="Path_1" data-name="Path 1" d="M82.279,14.117A48.2,48.2,0,0,0,14.117,82.279,48.2,48.2,0,0,0,82.279,14.117ZM31.317,11.2a43.438,43.438,0,0,0-2.2,3.892,55.767,55.767,0,0,0-2.937,7.121H16.938A40.9,40.9,0,0,1,31.317,11.2ZM11.963,29.747H24.123a85.954,85.954,0,0,0-1.83,14.685H7.707A40.359,40.359,0,0,1,11.963,29.747Zm0,36.9A40.359,40.359,0,0,1,7.707,51.964H22.293a85.973,85.973,0,0,0,1.83,14.685Zm4.975,7.531h9.246A55.712,55.712,0,0,0,29.121,81.3a43.485,43.485,0,0,0,2.2,3.892A40.9,40.9,0,0,1,16.938,74.18ZM44.433,87.9c-3.1-1.571-6.1-5.017-8.576-9.971q-.894-1.787-1.664-3.753h10.24Zm0-21.255H31.841A76.9,76.9,0,0,1,29.83,51.964h14.6Zm0-22.216H29.83a76.88,76.88,0,0,1,2.011-14.685H44.433Zm0-22.216H34.193q.77-1.961,1.664-3.753c2.477-4.954,5.475-8.4,8.576-9.971V22.216Zm40,7.531a40.359,40.359,0,0,1,4.256,14.685H74.1a85.973,85.973,0,0,0-1.83-14.685Zm-4.975-7.531H70.212A55.712,55.712,0,0,0,67.275,15.1a43.483,43.483,0,0,0-2.2-3.892A40.9,40.9,0,0,1,79.458,22.216ZM51.964,8.493c3.1,1.571,6.1,5.017,8.576,9.971q.894,1.787,1.664,3.753H51.964Zm0,21.255H64.555a76.9,76.9,0,0,1,2.011,14.685h-14.6Zm8.576,48.185c-2.477,4.954-5.475,8.4-8.576,9.971V74.18H62.2Q61.433,76.141,60.539,77.933ZM51.964,66.649V51.964h14.6a76.88,76.88,0,0,1-2.011,14.685ZM65.079,85.192a43.436,43.436,0,0,0,2.2-3.892,55.767,55.767,0,0,0,2.937-7.121h9.246A40.9,40.9,0,0,1,65.079,85.192ZM84.433,66.649H72.274A85.953,85.953,0,0,0,74.1,51.964H88.689A40.359,40.359,0,0,1,84.433,66.649Z" fill="#fff"/>
  </g>
</svg>
