<svg xmlns="http://www.w3.org/2000/svg" xmlns:xlink="http://www.w3.org/1999/xlink" width="121" height="28" viewBox="0 0 121 28">
  <defs>
    <clipPath id="clip">
      <use xlink:href="#fill"/>
    </clipPath>
    <clipPath id="clip-2">
      <use xlink:href="#fill-2"/>
    </clipPath>
    <clipPath id="clip-3">
      <use xlink:href="#fill-3"/>
    </clipPath>
    <clipPath id="clip-4">
      <use xlink:href="#fill-4"/>
    </clipPath>
  </defs>
  <g id="logo-white" transform="translate(-741 -3158)">
    <text id="Disconnected" transform="translate(741 3160)" fill="#fff" font-size="14" font-family="Verdana-Bold, Verdana" font-weight="700"><tspan x="0" y="14">Disconnected</tspan></text>
    <text id="Revisiting_lost_connections" data-name="Revisiting lost connections" transform="translate(742 3184)" fill="#fff" font-size="8" font-family="Verdana"><tspan x="0" y="0">Revisiting lost connections</tspan></text>
    <g id="Rectangle_12" data-name="Rectangle 12" transform="translate(848 3158)" fill="#fff" stroke="#fff" stroke-width="3">
      <rect id="fill" width="2" height="16" stroke="none"/>
      <path d="M0,1.5h2M1.5,0v16M2,14.5h-2M0.5,16v-16" fill="none" clip-path="url(#clip)"/>
    </g>
    <g id="Rectangle_13" data-name="Rectangle 13" transform="translate(852 3163)" fill="#fff" stroke="#fff" stroke-width="3">
      <rect id="fill-2" width="2" height="11" stroke="none"/>
      <path d="M0,1.5h2M1.5,0v11M2,9.5h-2M0.5,11v-11" fill="none" clip-path="url(#clip-2)"/>
    </g>
    <g id="Rectangle_14" data-name="Rectangle 14" transform="translate(856 3166)" fill="#fff" stroke="#fff" stroke-width="3">
      <rect id="fill-3" width="2" height="8" stroke="none"/>
      <path d="M0,1.5h2M1.5,0v8M2,6.5h-2M0.5,8v-8" fill="none" clip-path="url(#clip-3)"/>
    </g>
    <g id="Rectangle_15" data-name="Rectangle 15" transform="translate(860 3169)" fill="#fff" stroke="#fff" stroke-width="3">
      <rect id="fill-4" width="2" height="5" stroke="none"/>
      <path d="M0,1.5h2M1.5,0v5M2,3.5h-2M0.5,5v-5" fill="none" clip-path="url(#clip-4)"/>
    </g>
  </g>
</svg>
