<svg id="internet" xmlns="http://www.w3.org/2000/svg" width="84.354" height="84.354" viewBox="0 0 84.354 84.354">
  <g id="Group_1" data-name="Group 1">
    <path id="Path_1" data-name="Path 1" d="M72,12.353A42.177,42.177,0,0,0,12.353,72,42.177,42.177,0,0,0,72,12.353ZM27.4,9.8a38.011,38.011,0,0,0-1.922,3.405,48.8,48.8,0,0,0-2.57,6.231H14.822A35.789,35.789,0,0,1,27.4,9.8ZM10.469,26.031h10.64a75.217,75.217,0,0,0-1.6,12.851H6.744A35.317,35.317,0,0,1,10.469,26.031Zm0,32.292A35.317,35.317,0,0,1,6.744,45.472H19.508a75.233,75.233,0,0,0,1.6,12.851Zm4.353,6.59h8.091a48.753,48.753,0,0,0,2.57,6.231A38.052,38.052,0,0,0,27.4,74.55,35.786,35.786,0,0,1,14.822,64.913Zm24.06,12.009c-2.713-1.374-5.337-4.39-7.5-8.725q-.782-1.564-1.456-3.284h8.96Zm0-18.6H27.863A67.29,67.29,0,0,1,26.1,45.472H38.882Zm0-19.441H26.1a67.276,67.276,0,0,1,1.76-12.851H38.882Zm0-19.441h-8.96q.674-1.716,1.456-3.284c2.168-4.335,4.791-7.351,7.5-8.725V19.441Zm35,6.59A35.317,35.317,0,0,1,77.61,38.882H64.846a75.233,75.233,0,0,0-1.6-12.851Zm-4.353-6.59H61.441a48.752,48.752,0,0,0-2.57-6.231A38.051,38.051,0,0,0,56.949,9.8,35.786,35.786,0,0,1,69.532,19.441ZM45.472,7.432c2.713,1.374,5.337,4.39,7.5,8.725q.782,1.564,1.456,3.284h-8.96Zm0,18.6H56.491a67.29,67.29,0,0,1,1.76,12.851H45.472Zm7.5,42.166c-2.168,4.335-4.791,7.351-7.5,8.725V64.913h8.96Q53.759,66.629,52.977,68.2Zm-7.5-9.874V45.472H58.251a67.277,67.277,0,0,1-1.76,12.851ZM56.949,74.55a38.009,38.009,0,0,0,1.922-3.405,48.8,48.8,0,0,0,2.57-6.231h8.091A35.789,35.789,0,0,1,56.949,74.55ZM73.885,58.323H63.245a75.216,75.216,0,0,0,1.6-12.851H77.61A35.317,35.317,0,0,1,73.885,58.323Z" fill="#fff"/>
  </g>
</svg>
